<?xml version="1.0" standalone="no"?>
<!DOCTYPE svg PUBLIC "-//W3C//DTD SVG 20010904//EN"
 "http://www.w3.org/TR/2001/REC-SVG-20010904/DTD/svg10.dtd">
<svg version="1.0" xmlns="http://www.w3.org/2000/svg"
 width="614.000000pt" height="308.000000pt" viewBox="0 0 614.000000 308.000000"
 preserveAspectRatio="xMidYMid meet">

<g transform="translate(0.000000,308.000000) scale(0.100000,-0.100000)"
fill="#fff" stroke="none">
<path d="M415 2578 c-8 -24 0 -2206 8 -2214 5 -5 161 22 347 60 l338 68 99
-21 c228 -51 469 -101 481 -101 9 0 12 194 12 935 l0 935 332 0 c398 0 422 -4
504 -84 61 -60 84 -121 84 -226 0 -101 -23 -164 -80 -221 -68 -68 -92 -73
-372 -73 l-238 -1 0 -162 0 -162 283 -3 c238 -3 288 -6 318 -20 53 -25 96 -64
127 -117 25 -43 27 -54 27 -156 0 -103 -2 -113 -30 -164 -33 -61 -89 -106
-163 -133 -40 -14 -87 -17 -304 -18 l-258 0 0 -166 0 -166 298 5 c312 4 334 7
446 56 27 12 78 42 112 66 166 119 254 300 254 522 -1 183 -47 302 -162 415
l-71 69 22 30 c98 132 131 223 138 384 9 206 -43 353 -171 481 -59 59 -92 83
-158 113 -165 77 -105 73 -1220 78 -827 4 -999 2 -1003 -9z m330 -254 c113
-86 211 -324 235 -570 6 -65 14 -134 16 -151 l5 -33 109 0 110 0 0 73 c0 184
37 360 104 502 64 136 164 228 230 211 35 -9 50 -68 41 -166 -17 -194 -71
-344 -209 -585 -25 -44 -46 -84 -46 -90 0 -5 23 -25 51 -44 70 -48 137 -125
173 -201 29 -61 31 -71 31 -185 0 -111 -2 -125 -29 -183 -34 -73 -135 -175
-212 -213 -65 -32 -142 -32 -203 0 l-44 23 -43 -21 c-59 -30 -129 -36 -182
-17 -187 68 -308 278 -273 475 19 104 60 181 138 259 38 37 80 76 95 87 l28
20 -70 125 c-39 69 -88 170 -109 225 -67 170 -102 395 -72 469 11 26 15 28 51
23 21 -3 55 -17 75 -33z"/>
<path d="M1242 1225 c-42 -35 -44 -84 -6 -114 35 -28 69 -26 99 4 30 29 34 84
8 108 -34 30 -67 31 -101 2z"/>
<path d="M874 1232 c-16 -11 -34 -48 -34 -72 0 -31 44 -70 78 -70 44 0 72 28
74 72 2 50 -24 78 -71 78 -20 0 -41 -4 -47 -8z"/>
<path d="M1046 1058 c3 -13 13 -30 20 -39 32 -37 2 -95 -37 -71 -16 10 -21 10
-25 -3 -15 -37 43 -60 76 -30 15 14 18 14 30 0 17 -21 63 -19 84 4 14 16 15
20 2 30 -10 8 -16 9 -21 1 -12 -20 -44 -11 -51 14 -4 18 2 35 21 60 15 19 24
40 20 46 -3 5 -33 10 -66 10 -58 0 -60 -1 -53 -22z"/>
<path d="M4713 2274 c-2 -6 -3 -84 -1 -173 2 -88 1 -161 -2 -161 -3 0 -51 75
-106 168 l-101 167 -42 3 -41 3 0 -245 0 -246 35 0 35 0 2 179 3 180 107 -177
c104 -173 107 -177 142 -180 l36 -3 -2 247 -3 247 -29 2 c-15 0 -30 -4 -33
-11z"/>
<path d="M5340 2278 c0 -3 39 -70 86 -148 l86 -142 -1 -99 -2 -99 46 0 46 0
-2 99 -1 98 86 143 c47 79 86 147 86 151 0 8 -84 -1 -88 -10 -1 -3 -30 -53
-63 -110 l-61 -103 -19 28 c-11 16 -40 66 -65 111 -46 80 -47 81 -90 85 -24 2
-44 0 -44 -4z"/>
<path d="M3488 2035 l-3 -245 138 0 c151 0 189 9 224 54 45 57 35 159 -19 187
-12 6 -25 13 -27 15 -2 2 9 13 23 26 34 29 44 89 23 139 -24 57 -61 69 -221
69 l-135 0 -3 -245z m273 166 c29 -23 32 -87 6 -106 -22 -16 -134 -29 -170
-20 -26 7 -27 10 -27 76 l0 69 84 0 c67 0 88 -4 107 -19z m13 -207 c21 -20 30
-58 22 -89 -10 -38 -54 -55 -146 -55 l-80 0 0 80 0 80 94 0 c73 0 98 -4 110
-16z"/>
<path d="M3960 2093 c0 -176 2 -191 23 -227 33 -58 96 -89 169 -83 74 6 125
37 149 91 16 35 19 67 19 224 l0 182 -40 0 -40 0 0 -181 c0 -104 -4 -188 -10
-200 -14 -25 -62 -49 -100 -49 -21 0 -41 9 -61 29 l-29 29 0 186 0 186 -40 0
-40 0 0 -187z"/>
<path d="M4900 2035 l0 -245 35 0 35 0 0 183 c1 146 3 179 13 165 7 -10 57
-92 112 -183 l100 -165 38 0 37 0 0 245 0 245 -37 0 -38 0 3 -172 c2 -118 0
-170 -7 -163 -11 11 -165 254 -193 304 -15 27 -23 31 -58 31 l-40 0 0 -245z"/>
<path d="M4640 1451 c-144 -47 -201 -181 -150 -355 16 -53 87 -122 142 -136
152 -42 280 69 282 243 1 105 -36 182 -107 226 -37 23 -128 35 -167 22z m121
-78 c44 -26 69 -87 69 -165 0 -79 -18 -126 -62 -163 -28 -23 -39 -27 -80 -23
-85 9 -128 69 -128 182 0 73 11 110 43 145 41 44 107 54 158 24z"/>
<path d="M3490 1204 l0 -246 158 4 c132 2 162 6 188 22 84 51 90 191 9 228
l-24 11 24 29 c29 35 33 84 9 133 -24 52 -69 65 -229 65 l-135 0 0 -246z m283
158 c21 -19 22 -75 1 -96 -12 -12 -37 -16 -110 -16 l-94 0 0 63 c0 35 3 66 6
70 12 12 179 -5 197 -21z m27 -202 c26 -26 27 -83 2 -108 -14 -14 -41 -20
-103 -25 -129 -10 -124 -13 -127 76 l-3 77 106 0 c92 0 108 -3 125 -20z"/>
<path d="M4000 1205 l0 -245 40 0 40 0 0 100 0 100 68 0 68 0 49 -96 c28 -53
55 -98 61 -101 7 -2 28 -3 47 -1 l36 3 -55 99 c-30 54 -54 100 -54 102 0 2 13
10 30 19 61 32 80 132 37 196 -39 59 -73 69 -229 69 l-138 0 0 -245z m290 155
c28 -28 27 -87 -2 -117 -19 -21 -30 -23 -114 -23 -105 0 -104 -2 -104 103 l0
57 100 0 c87 0 103 -3 120 -20z"/>
</g>
</svg>
